<svg width="215" height="158" viewBox="0 0 215 158" fill="none" xmlns="http://www.w3.org/2000/svg">
<path d="M140.674 94.0694C126.964 84.8289 109.691 83.1909 94.467 89.6901C79.2433 96.1893 68.5291 109.776 65.8069 126.031L59.2435 165.202C58.1545 171.7 59.1761 178.236 62.1944 184.097C65.2138 189.96 69.9488 194.599 75.8884 197.516C81.8286 200.428 88.4134 201.34 94.9311 200.156C101.448 198.971 107.285 195.797 111.81 190.979L112.113 190.655C123.552 178.656 139.606 171.867 156.236 172.014C160.525 172.051 164.693 171.217 168.552 169.569C170.65 168.674 172.658 167.536 174.545 166.169C179.9 162.287 183.775 156.909 185.751 150.616C187.725 144.325 187.613 137.712 185.427 131.491C183.242 125.27 179.19 120.03 173.708 116.334L140.674 94.0694ZM51.3236 132.166C56.2441 127.402 58.6848 120.771 58.1955 113.495C57.7307 106.571 54.6298 99.8534 49.4626 94.5794C44.2961 89.3102 37.6258 86.0553 30.6793 85.4136C23.3828 84.7407 16.6569 86.9956 11.7476 91.7602C1.86676 101.334 2.70237 118.192 13.6152 129.345C22.316 138.215 34.8185 140.822 44.5351 136.674C47.0577 135.6 49.3593 134.072 51.3236 132.166ZM79.3702 91.6997C94.1596 85.386 100.317 66.6156 93.0969 49.8577C85.8746 33.0956 67.967 24.5961 53.1777 30.9099C38.3898 37.223 32.2345 55.9953 39.4568 72.7574C46.6772 89.5152 64.582 98.013 79.3702 91.6997ZM128.908 79.3914L128.91 79.3908C131.455 79.176 133.948 78.555 136.295 77.5516C147.08 72.9472 154.227 60.6527 153.068 46.9415C152.402 39.0488 149.103 31.8107 143.781 26.5619C138.21 21.0663 131.116 18.3794 123.805 18.9962C116.492 19.6134 109.949 23.4511 105.381 29.8012C101.016 35.8668 98.981 43.555 99.6501 51.4463C101.059 68.0955 114.184 80.6313 128.908 79.3914ZM183.864 51.7309L183.858 51.7285C170.43 48.5895 156.576 58.3489 152.974 73.4888C149.383 88.6305 157.377 103.513 170.791 106.664C175.684 107.815 180.637 107.249 185.128 105.332C192.956 101.99 199.388 94.5394 201.683 84.9082C205.273 69.7666 197.281 54.8838 183.864 51.7305L183.864 51.7309Z" fill="#E47537"/>
</svg>
