<svg width="114" height="106" viewBox="0 0 114 106" fill="none" xmlns="http://www.w3.org/2000/svg">
<path d="M94.2191 63.022C85.0367 56.8313 73.4675 55.7339 63.2711 60.0881C53.0748 64.4422 45.8987 73.5443 44.0755 84.4348L39.6795 110.677C38.9502 115.031 39.6344 119.409 41.656 123.336C43.6783 127.264 46.8496 130.372 50.8277 132.326C54.8063 134.277 59.2166 134.888 63.582 134.094C67.947 133.301 71.8565 131.174 74.8872 127.947L75.0897 127.729C82.7512 119.691 93.5038 115.143 104.642 115.241C107.514 115.266 110.306 114.707 112.891 113.603C114.296 113.003 115.641 112.241 116.905 111.325C120.492 108.724 123.087 105.121 124.41 100.905C125.732 96.691 125.657 92.26 124.193 88.0926C122.73 83.9251 120.016 80.4145 116.344 77.9381L94.2191 63.022ZM34.3751 88.545C37.6706 85.3532 39.3054 80.9108 38.9776 76.0362C38.6663 71.3974 36.5895 66.8969 33.1286 63.3636C29.6683 59.8335 25.2007 57.6529 20.5482 57.223C15.6612 56.7722 11.1565 58.2829 7.86833 61.4749C1.25048 67.8891 1.81015 79.1827 9.11917 86.6547C14.9467 92.5973 23.3205 94.3438 29.8283 91.5647C31.5179 90.8457 33.0594 89.8219 34.3751 88.545ZM53.1598 61.4344C63.0652 57.2045 67.1895 44.6293 62.3535 33.4023C57.5162 22.1725 45.5223 16.4783 35.6169 20.7082C25.7124 24.9377 21.5898 37.5142 26.427 48.744C31.2631 59.9709 43.2551 65.664 53.1598 61.4344ZM86.3388 53.1884L86.3398 53.188C88.0441 53.0441 89.7143 52.6281 91.286 51.9558C98.5097 48.8711 103.297 40.6344 102.52 31.4486C102.074 26.1609 99.8647 21.3117 96.2997 17.7953C92.5687 14.1135 87.8174 12.3134 82.9206 12.7266C78.0224 13.1401 73.6407 15.7112 70.5808 19.9654C67.6574 24.0291 66.2944 29.1798 66.7426 34.4666C67.6862 45.6207 76.4771 54.0191 86.3388 53.1884ZM123.146 34.6572L123.142 34.6556C114.149 32.5527 104.87 39.091 102.458 49.234C100.052 59.3782 105.406 69.3485 114.391 71.4597C117.668 72.2307 120.985 71.8516 123.993 70.5671C129.236 68.3282 133.544 63.3368 135.081 56.8844C137.486 46.7403 132.133 36.7695 123.146 34.657L123.146 34.6572Z" fill="#E47537"/>
</svg>
