<svg width="200" height="35" viewBox="0 0 200 35" fill="none" xmlns="http://www.w3.org/2000/svg">
<g clip-path="url(#clip0_31_365)">
<path d="M23.0509 16.362C21.4997 13.905 18.858 12.4379 15.9842 12.4379C13.1103 12.4379 10.4685 13.905 8.91768 16.362L5.18008 22.2822C4.56002 23.2643 4.27389 24.3992 4.35245 25.5632C4.43109 26.7274 4.86742 27.8115 5.61405 28.6992C6.36116 29.586 7.34841 30.1921 8.46903 30.4523C9.58958 30.7123 10.7383 30.6013 11.7908 30.1315L11.8613 30.0997C14.5096 28.9414 17.5358 28.952 20.1773 30.1315C20.8586 30.4357 21.5805 30.5895 22.309 30.5895C22.705 30.5895 23.1035 30.5439 23.4982 30.4525C24.6188 30.1927 25.6061 29.5866 26.3534 28.6995C27.1003 27.8126 27.5369 26.7282 27.6158 25.5637C27.6947 24.3992 27.4086 23.2646 26.7884 22.2819L23.0509 16.362ZM6.18685 16.3542C7.29872 15.9206 8.14344 15.0108 8.5653 13.7923C8.96689 12.6329 8.93397 11.3239 8.47239 10.1062C8.01061 8.88945 7.17067 7.89605 6.10714 7.30885C4.98995 6.69225 3.76262 6.59189 2.6525 7.02632C0.419273 7.89817 -0.605611 10.7004 0.368174 13.2743C1.14611 15.3229 2.96051 16.6161 4.79478 16.6161C5.27074 16.6167 5.74271 16.5279 6.18685 16.3542ZM13.4389 11.7159C16.2308 11.7159 18.5022 9.08831 18.5022 5.8586C18.5022 2.62808 16.2308 0 13.4389 0C10.6473 0 8.37619 2.62808 8.37619 5.8586C8.37619 9.08831 10.6473 11.7159 13.4389 11.7159ZM22.1833 13.1549H22.1835C22.6041 13.2968 23.0443 13.369 23.4874 13.3688C25.5235 13.3688 27.5077 11.8641 28.2649 9.55158C28.7009 8.22049 28.6722 6.81297 28.1841 5.58865C27.6734 4.30691 26.7269 3.37654 25.5188 2.96885C24.3103 2.56108 23.0035 2.73116 21.8388 3.44736C20.7261 4.13144 19.8734 5.24152 19.438 6.57262C18.5188 9.38075 19.7504 12.3335 22.1833 13.1549ZM32.8461 12.4713L32.8453 12.4705C30.92 11.0264 28.0405 11.6523 26.4261 13.8666C24.8132 16.0818 25.0654 19.06 26.9878 20.5051C27.6889 21.0325 28.5174 21.2846 29.3652 21.2846C30.843 21.2846 32.3804 20.5187 33.4081 19.1105C35.0208 16.8952 34.7688 13.917 32.8461 12.4713V12.4713Z" fill="#FDEEE3"/>
</g>
<path d="M184.615 16.2557C184.408 16.2557 184.305 16.1458 184.305 15.9259V14.7266C184.305 14.5168 184.408 14.4118 184.615 14.4118H186.15V11.0089C186.15 10.8589 186.17 10.709 186.209 10.5591C186.258 10.4092 186.382 10.2943 186.578 10.2143L194.728 7.15615C195.102 7.01623 195.412 6.91129 195.658 6.84133C195.904 6.77138 196.121 6.7364 196.308 6.7364C196.377 6.7364 196.451 6.75139 196.529 6.78137C196.618 6.80136 196.697 6.84133 196.766 6.9013C196.844 6.96126 196.908 7.04621 196.958 7.15615C197.007 7.25609 197.031 7.38101 197.031 7.53092V14.4118H199.689C199.896 14.4118 199.999 14.5168 199.999 14.7266V15.9259C199.999 16.1458 199.896 16.2557 199.689 16.2557H197.031V22.2972C197.031 23.0067 197.145 23.5064 197.371 23.7963C197.607 24.0861 197.966 24.231 198.449 24.231C198.557 24.231 198.67 24.221 198.788 24.201C198.906 24.171 199.015 24.1461 199.113 24.1261C199.221 24.0961 199.32 24.0711 199.408 24.0511C199.497 24.0211 199.571 24.0061 199.63 24.0061C199.738 24.0061 199.792 24.0711 199.792 24.201V25.3553C199.792 25.5552 199.753 25.6901 199.674 25.7601C199.595 25.8301 199.527 25.875 199.468 25.895C199.093 26.0549 198.651 26.2148 198.139 26.3747C197.637 26.5346 197.09 26.6745 196.5 26.7945C195.919 26.9244 195.304 27.0243 194.654 27.0943C194.005 27.1743 193.355 27.2142 192.706 27.2142C191.77 27.2142 190.899 27.1643 190.092 27.0643C189.295 26.9744 188.601 26.7595 188.011 26.4197C187.43 26.0799 186.972 25.5752 186.637 24.9056C186.313 24.236 186.15 23.3265 186.15 22.1772V16.2557H184.615Z" fill="#FDEEE3"/>
<path d="M179.669 24.201C179.935 24.201 180.176 24.166 180.392 24.0961C180.609 24.0161 180.801 23.9312 180.968 23.8412C181.145 23.7513 181.288 23.6713 181.396 23.6014C181.514 23.5214 181.603 23.4814 181.662 23.4814C181.751 23.4814 181.81 23.4964 181.839 23.5264C181.879 23.5564 181.923 23.6114 181.972 23.6913L182.489 24.5008C182.538 24.5808 182.563 24.6507 182.563 24.7107C182.563 24.7807 182.543 24.8356 182.504 24.8756C182.464 24.9156 182.425 24.9506 182.386 24.9806C182.061 25.2104 181.662 25.4603 181.19 25.7301C180.717 25.99 180.166 26.2298 179.536 26.4497C178.916 26.6695 178.212 26.8494 177.425 26.9894C176.637 27.1393 175.771 27.2142 174.826 27.2142C174.088 27.2142 173.35 27.1543 172.612 27.0343C171.873 26.9144 171.165 26.7245 170.486 26.4647C169.816 26.2048 169.191 25.865 168.611 25.4453C168.03 25.0255 167.523 24.5108 167.09 23.9012C166.667 23.2916 166.332 22.587 166.086 21.7875C165.84 20.9779 165.717 20.0535 165.717 19.0141C165.717 17.9947 165.84 17.0852 166.086 16.2857C166.332 15.4762 166.667 14.7666 167.09 14.157C167.523 13.5473 168.03 13.0327 168.611 12.6129C169.191 12.1832 169.816 11.8384 170.486 11.5785C171.165 11.3087 171.873 11.1138 172.612 10.9939C173.35 10.8739 174.088 10.814 174.826 10.814C176.057 10.814 177.198 10.9539 178.252 11.2337C179.315 11.5136 180.235 11.9733 181.013 12.6129C181.79 13.2525 182.4 14.092 182.843 15.1314C183.286 16.1708 183.508 17.445 183.508 18.9541V19.7936C183.508 19.9735 183.463 20.1134 183.375 20.2134C183.286 20.3133 183.139 20.3633 182.932 20.3633H176.819C176.898 21.1029 177.036 21.7225 177.233 22.2222C177.44 22.7119 177.671 23.1067 177.927 23.4065C178.193 23.6963 178.478 23.9012 178.783 24.0211C179.088 24.1411 179.384 24.201 179.669 24.201ZM181.411 18.5194C181.411 17.7199 181.347 17.0603 181.219 16.5406C181.101 16.0109 180.939 15.5911 180.732 15.2813C180.525 14.9615 180.279 14.7366 179.994 14.6067C179.718 14.4768 179.428 14.4118 179.123 14.4118C178.896 14.4118 178.65 14.4568 178.384 14.5468C178.119 14.6367 177.868 14.8266 177.632 15.1164C177.405 15.4062 177.208 15.821 177.041 16.3607C176.883 16.9004 176.79 17.6199 176.76 18.5194H181.411Z" fill="#FDEEE3"/>
<path d="M147.896 13.4224C147.896 13.0826 147.926 12.7828 147.985 12.523C148.044 12.2531 148.157 12.0333 148.325 11.8634C148.492 11.6935 148.723 11.5635 149.019 11.4736C149.314 11.3836 149.698 11.3387 150.17 11.3387H156.209C156.652 11.3387 157.031 11.3836 157.346 11.4736C157.67 11.5635 157.902 11.7184 158.039 11.9383C158.167 11.8484 158.32 11.7534 158.497 11.6535C158.684 11.5435 158.886 11.4436 159.103 11.3537C159.319 11.2637 159.55 11.1888 159.796 11.1288C160.042 11.0688 160.298 11.0388 160.564 11.0388C161.509 11.0388 162.242 11.3686 162.764 12.0283C163.296 12.6879 163.561 13.6573 163.561 14.9365V25.985C163.561 26.1549 163.537 26.2898 163.487 26.3897C163.448 26.4797 163.394 26.5496 163.325 26.5996C163.266 26.6396 163.192 26.6646 163.104 26.6745C163.015 26.6845 162.926 26.6895 162.838 26.6895H161.893C161.637 26.6895 161.47 26.6146 161.391 26.4647C161.322 26.3148 161.288 26.1549 161.288 25.985V14.7866C161.288 14.217 161.184 13.7822 160.978 13.4824C160.781 13.1826 160.461 13.0327 160.018 13.0327C159.792 13.0327 159.56 13.0976 159.324 13.2275C159.098 13.3475 158.915 13.4774 158.778 13.6173V24.5908C158.778 24.9406 158.748 25.2454 158.689 25.5052C158.63 25.7651 158.517 25.985 158.35 26.1649C158.182 26.3348 157.951 26.4647 157.656 26.5546C157.36 26.6446 156.976 26.6895 156.504 26.6895H150.17C149.698 26.6895 149.314 26.6446 149.019 26.5546C148.723 26.4647 148.492 26.3348 148.325 26.1649C148.157 25.995 148.044 25.7801 147.985 25.5202C147.926 25.2604 147.896 24.9556 147.896 24.6058V13.4224Z" fill="#FDEEE3"/>
<path d="M135.022 26.6895C134.491 26.6895 133.955 26.6546 133.413 26.5846C132.882 26.5146 132.37 26.4047 131.878 26.2548C131.395 26.0949 130.943 25.89 130.519 25.6402C130.096 25.3903 129.727 25.0805 129.412 24.7107C129.107 24.3409 128.866 23.9062 128.689 23.4065C128.511 22.9068 128.423 22.3321 128.423 21.6825C128.423 20.813 128.585 20.0685 128.91 19.4488C129.235 18.8292 129.668 18.3145 130.209 17.9048C130.761 17.495 131.39 17.1802 132.099 16.9603C132.808 16.7405 133.541 16.6005 134.299 16.5406V15.5062C134.299 15.1164 134.25 14.8066 134.151 14.5767C134.053 14.3469 133.925 14.177 133.767 14.067C133.62 13.9471 133.453 13.8722 133.266 13.8422C133.088 13.8022 132.916 13.7822 132.749 13.7822C132.552 13.7822 132.34 13.8122 132.114 13.8722C131.897 13.9321 131.686 14.0071 131.479 14.097C131.272 14.177 131.075 14.2669 130.888 14.3669C130.701 14.4668 130.544 14.5568 130.416 14.6367C130.357 14.6767 130.303 14.7117 130.254 14.7416C130.204 14.7716 130.155 14.7866 130.106 14.7866C130.017 14.7866 129.934 14.7217 129.855 14.5917L129.353 13.7822C129.304 13.7123 129.279 13.6373 129.279 13.5573C129.279 13.4774 129.309 13.4074 129.368 13.3475C129.437 13.2875 129.501 13.2375 129.56 13.1976C129.885 12.9677 130.298 12.7328 130.8 12.493C131.302 12.2531 131.863 12.0382 132.483 11.8484C133.113 11.6585 133.792 11.5036 134.52 11.3836C135.249 11.2637 136.002 11.2037 136.779 11.2037C137.518 11.2037 138.236 11.2287 138.935 11.2787C139.644 11.3287 140.308 11.4386 140.928 11.6085C141.558 11.7684 142.129 12.0033 142.641 12.3131C143.162 12.6129 143.61 13.0127 143.984 13.5124C144.368 14.0121 144.663 14.6267 144.87 15.3563C145.077 16.0858 145.18 16.9603 145.18 17.9797V24.6657C145.18 24.9955 145.151 25.2904 145.092 25.5502C145.033 25.8001 144.919 26.0099 144.752 26.1798C144.585 26.3497 144.353 26.4797 144.058 26.5696C143.763 26.6496 143.379 26.6895 142.907 26.6895H135.022ZM134.299 18.4444C133.59 18.4444 132.995 18.5344 132.513 18.7143C132.03 18.8942 131.641 19.134 131.346 19.4339C131.051 19.7337 130.839 20.0835 130.711 20.4832C130.583 20.873 130.519 21.2778 130.519 21.6975C130.519 22.1173 130.583 22.517 130.711 22.8968C130.839 23.2666 131.051 23.5914 131.346 23.8712C131.641 24.151 132.03 24.3709 132.513 24.5308C132.995 24.6907 133.59 24.7707 134.299 24.7707V18.4444Z" fill="#FDEEE3"/>
<path d="M115.238 4.21789C115.238 3.8781 115.268 3.57827 115.327 3.31843C115.386 3.04859 115.499 2.82872 115.666 2.65882C115.834 2.48892 116.065 2.359 116.36 2.26905C116.656 2.17911 117.04 2.13413 117.512 2.13413H123.979C124.431 2.13413 124.796 2.17911 125.071 2.26905C125.347 2.349 125.563 2.47393 125.721 2.64383C125.878 2.81373 125.982 3.0286 126.031 3.28845C126.09 3.54829 126.119 3.85311 126.119 4.2029V24.6358C126.119 24.9756 126.09 25.2754 126.031 25.5352C125.972 25.7851 125.864 25.9999 125.706 26.1798C125.549 26.3497 125.327 26.4797 125.042 26.5696C124.766 26.6496 124.402 26.6895 123.949 26.6895H117.512C117.04 26.6895 116.656 26.6446 116.36 26.5546C116.065 26.4647 115.834 26.3347 115.666 26.1649C115.499 25.995 115.386 25.7801 115.327 25.5202C115.268 25.2604 115.238 24.9556 115.238 24.6058V4.21789Z" fill="#FDEEE3"/>
<path d="M104.224 10.9939C104.952 10.9939 105.675 11.0488 106.394 11.1588C107.113 11.2687 107.802 11.4486 108.461 11.6984C109.12 11.9483 109.731 12.2731 110.292 12.6729C110.853 13.0726 111.34 13.5673 111.753 14.157C112.167 14.7466 112.492 15.4362 112.728 16.2258C112.964 17.0053 113.082 17.9048 113.082 18.9242C113.082 20.1834 112.905 21.2728 112.551 22.1922C112.196 23.1017 111.724 23.8662 111.133 24.4858C110.543 25.1055 109.859 25.5952 109.081 25.955C108.304 26.3048 107.487 26.5496 106.63 26.6895V30.7671C106.63 31.1269 106.601 31.4367 106.542 31.6966C106.483 31.9564 106.374 32.1713 106.217 32.3412C106.069 32.5211 105.853 32.651 105.567 32.7309C105.292 32.8209 104.932 32.8659 104.489 32.8659H98.0227C97.5503 32.8659 97.1664 32.8209 96.8711 32.7309C96.5758 32.641 96.3445 32.5061 96.1772 32.3262C96.0099 32.1563 95.8967 31.9414 95.8376 31.6816C95.7786 31.4217 95.749 31.1169 95.749 30.7671V18.7742C95.749 17.535 95.936 16.4306 96.3101 15.4612C96.6939 14.4918 97.2451 13.6773 97.9637 13.0177C98.692 12.3581 99.5779 11.8584 100.621 11.5186C101.674 11.1688 102.875 10.9939 104.224 10.9939ZM110.986 18.9092C110.986 18.1396 110.902 17.425 110.735 16.7654C110.567 16.1058 110.307 15.5212 109.952 15.0115C109.598 14.5018 109.145 14.087 108.594 13.7672C108.053 13.4374 107.398 13.2275 106.63 13.1376V24.7707C107.398 24.6707 108.053 24.4559 108.594 24.1261C109.145 23.7963 109.598 23.3715 109.952 22.8518C110.307 22.3321 110.567 21.7375 110.735 21.0679C110.902 20.3983 110.986 19.6787 110.986 18.9092Z" fill="#FDEEE3"/>
<path d="M78.1069 16.2557C77.9002 16.2557 77.7969 16.1458 77.7969 15.9259V14.7266C77.7969 14.5168 77.9002 14.4118 78.1069 14.4118H79.6424V11.0089C79.6424 10.8589 79.6621 10.709 79.7015 10.5591C79.7507 10.4092 79.8737 10.2943 80.0706 10.2143L88.2204 7.15615C88.5944 7.01623 88.9045 6.91129 89.1505 6.84133C89.3966 6.77138 89.6132 6.7364 89.8002 6.7364C89.8691 6.7364 89.9429 6.75139 90.0216 6.78137C90.1102 6.80136 90.189 6.84133 90.2579 6.9013C90.3366 6.96126 90.4006 7.04621 90.4498 7.15615C90.499 7.25609 90.5236 7.38101 90.5236 7.53092V14.4118H93.1812C93.3879 14.4118 93.4912 14.5168 93.4912 14.7266V15.9259C93.4912 16.1458 93.3879 16.2557 93.1812 16.2557H90.5236V22.2972C90.5236 23.0067 90.6368 23.5064 90.8632 23.7963C91.0994 24.0861 91.4587 24.231 91.941 24.231C92.0493 24.231 92.1624 24.221 92.2806 24.201C92.3987 24.171 92.5069 24.1461 92.6054 24.1261C92.7136 24.0961 92.8121 24.0711 92.9007 24.0511C92.9892 24.0211 93.0631 24.0061 93.1221 24.0061C93.2304 24.0061 93.2845 24.0711 93.2845 24.201V25.3553C93.2845 25.5552 93.2452 25.6901 93.1664 25.7601C93.0877 25.8301 93.0188 25.875 92.9597 25.895C92.5857 26.0549 92.1428 26.2148 91.6309 26.3747C91.1289 26.5346 90.5827 26.6745 89.9921 26.7945C89.4114 26.9244 88.7962 27.0243 88.1466 27.0943C87.497 27.1743 86.8473 27.2142 86.1977 27.2142C85.2626 27.2142 84.3916 27.1643 83.5844 27.0643C82.7872 26.9744 82.0933 26.7595 81.5027 26.4197C80.922 26.0799 80.4643 25.5752 80.1296 24.9056C79.8048 24.236 79.6424 23.3265 79.6424 22.1772V16.2557H78.1069Z" fill="#FDEEE3"/>
<path d="M73.1602 24.201C73.4259 24.201 73.6671 24.166 73.8836 24.0961C74.1002 24.0161 74.2921 23.9312 74.4594 23.8412C74.6366 23.7513 74.7793 23.6713 74.8876 23.6014C75.0057 23.5214 75.0943 23.4814 75.1533 23.4814C75.2419 23.4814 75.301 23.4964 75.3305 23.5264C75.3699 23.5564 75.4142 23.6114 75.4634 23.6913L75.9801 24.5008C76.0294 24.5808 76.054 24.6507 76.054 24.7107C76.054 24.7807 76.0343 24.8356 75.9949 24.8756C75.9555 24.9156 75.9162 24.9506 75.8768 24.9806C75.552 25.2104 75.1533 25.4603 74.6809 25.7301C74.2084 25.99 73.6572 26.2298 73.0273 26.4497C72.4072 26.6695 71.7034 26.8494 70.916 26.9894C70.1286 27.1393 69.2624 27.2142 68.3175 27.2142C67.5793 27.2142 66.8411 27.1543 66.1029 27.0343C65.3647 26.9144 64.656 26.7245 63.9768 26.4647C63.3075 26.2048 62.6825 25.865 62.1018 25.4453C61.5211 25.0255 61.0142 24.5108 60.5811 23.9012C60.1578 23.2916 59.8232 22.587 59.5771 21.7875C59.331 20.9779 59.208 20.0535 59.208 19.0141C59.208 17.9947 59.331 17.0852 59.5771 16.2857C59.8232 15.4762 60.1578 14.7666 60.5811 14.157C61.0142 13.5473 61.5211 13.0327 62.1018 12.6129C62.6825 12.1832 63.3075 11.8384 63.9768 11.5785C64.656 11.3087 65.3647 11.1138 66.1029 10.9939C66.8411 10.8739 67.5793 10.814 68.3175 10.814C69.5479 10.814 70.6896 10.9539 71.7428 11.2337C72.8058 11.5136 73.7261 11.9733 74.5037 12.6129C75.2813 13.2525 75.8916 14.092 76.3345 15.1314C76.7774 16.1708 76.9989 17.445 76.9989 18.9541V19.7936C76.9989 19.9735 76.9546 20.1134 76.866 20.2134C76.7774 20.3133 76.6298 20.3633 76.4231 20.3633H70.3107C70.3894 21.1029 70.5272 21.7225 70.7241 22.2222C70.9308 22.7119 71.1621 23.1067 71.418 23.4065C71.6838 23.6963 71.9692 23.9012 72.2743 24.0211C72.5795 24.1411 72.8747 24.201 73.1602 24.201ZM74.9024 18.5194C74.9024 17.7199 74.8384 17.0603 74.7104 16.5406C74.5923 16.0109 74.4299 15.5911 74.2232 15.2813C74.0165 14.9615 73.7704 14.7366 73.485 14.6067C73.2094 14.4768 72.919 14.4118 72.6139 14.4118C72.3875 14.4118 72.1414 14.4568 71.8757 14.5468C71.6099 14.6367 71.3589 14.8266 71.1227 15.1164C70.8963 15.4062 70.6995 15.821 70.5321 16.3607C70.3747 16.9004 70.2812 17.6199 70.2516 18.5194H74.9024Z" fill="#FDEEE3"/>
<path d="M41.1221 7.26108C41.1221 6.91129 41.1516 6.60647 41.2107 6.34663C41.2697 6.08678 41.3829 5.87191 41.5502 5.70201C41.7176 5.52212 41.9489 5.3872 42.2441 5.29725C42.5394 5.2073 42.9233 5.16233 43.3958 5.16233H49.9806C50.6597 5.16233 51.334 5.2073 52.0033 5.29725C52.6726 5.3772 53.3124 5.51712 53.9226 5.717C54.5427 5.91688 55.1136 6.17673 55.6353 6.49654C56.1668 6.81635 56.6245 7.21611 57.0084 7.69582C57.4021 8.16555 57.7072 8.72022 57.9237 9.35984C58.1501 9.98946 58.2633 10.719 58.2633 11.5485C58.2633 12.7778 58.096 13.8172 57.7613 14.6667C57.4365 15.5062 56.9936 16.2008 56.4325 16.7504C55.8715 17.3001 55.217 17.7199 54.4689 18.0097C53.7307 18.2995 52.9531 18.5094 52.1362 18.6393V24.261C52.1362 24.4908 52.1165 24.7457 52.0771 25.0255C52.0377 25.3054 51.9393 25.5702 51.7818 25.8201C51.6243 26.0599 51.3832 26.2648 51.0584 26.4347C50.7336 26.6046 50.2857 26.6895 49.7148 26.6895H43.3958C42.9233 26.6895 42.5394 26.6446 42.2441 26.5546C41.9489 26.4647 41.7176 26.3347 41.5502 26.1648C41.3829 25.9949 41.2697 25.7801 41.2107 25.5202C41.1516 25.2604 41.1221 24.9556 41.1221 24.6058V7.26108ZM56.1816 11.7734C56.1816 11.1738 56.1028 10.6241 55.9453 10.1244C55.7878 9.61468 55.5467 9.16995 55.2219 8.79017C54.8971 8.4104 54.4788 8.09559 53.9669 7.84574C53.4551 7.59588 52.8448 7.42599 52.1362 7.33604V16.6455C52.8448 16.5356 53.4551 16.3357 53.9669 16.0459C54.4788 15.756 54.8971 15.3962 55.2219 14.9665C55.5467 14.5368 55.7878 14.052 55.9453 13.5124C56.1028 12.9627 56.1816 12.383 56.1816 11.7734Z" fill="#FDEEE3"/>
<defs>
<clipPath id="clip0_31_365">
<rect width="34.4703" height="35" fill="white"/>
</clipPath>
</defs>
</svg>
