<svg width="306" height="307" viewBox="0 0 306 307" fill="none" xmlns="http://www.w3.org/2000/svg">
<path d="M306 153.519L252.268 180.229L285.5 230.278L225.645 226.42L229.528 286.471L179.605 253.13L152.981 307L126.358 253.13L76.4719 286.471L80.318 226.42L20.4622 230.278L53.6946 180.229L0 153.519L53.6946 126.808L20.4622 76.7219L80.318 80.5805L76.4719 20.5666L126.358 53.8702L152.981 0L179.605 53.8702L229.528 20.5666L225.645 80.5805L285.5 76.7219L252.268 126.808L306 153.519Z" fill="#008234"/>
<path d="M133.609 142V115.012H126.381V109.396C127.802 109.361 129.085 109.24 130.229 109.032C131.373 108.789 132.396 108.373 133.297 107.784C134.198 107.16 134.978 106.293 135.637 105.184H141.045V142H133.609ZM163.075 142.416C160.371 142.416 158.083 141.931 156.211 140.96C154.339 139.989 152.813 138.655 151.635 136.956C150.456 135.223 149.607 133.229 149.087 130.976C148.567 128.688 148.307 126.261 148.307 123.696C148.307 121.061 148.567 118.6 149.087 116.312C149.641 114.024 150.508 112.013 151.687 110.28C152.9 108.547 154.443 107.195 156.315 106.224C158.221 105.253 160.509 104.768 163.179 104.768C165.952 104.768 168.275 105.271 170.147 106.276C172.053 107.281 173.579 108.685 174.723 110.488C175.901 112.256 176.733 114.267 177.219 116.52C177.739 118.773 177.999 121.131 177.999 123.592C177.999 126.123 177.739 128.515 177.219 130.768C176.699 133.021 175.867 135.032 174.723 136.8C173.579 138.533 172.053 139.903 170.147 140.908C168.24 141.913 165.883 142.416 163.075 142.416ZM163.075 135.552C164.773 135.552 166.108 135.171 167.079 134.408C168.084 133.611 168.829 132.588 169.315 131.34C169.835 130.092 170.164 128.792 170.303 127.44C170.476 126.053 170.563 124.771 170.563 123.592C170.563 122.483 170.476 121.252 170.303 119.9C170.164 118.513 169.852 117.213 169.367 116C168.881 114.752 168.153 113.729 167.183 112.932C166.212 112.135 164.895 111.736 163.231 111.736C161.567 111.736 160.232 112.135 159.227 112.932C158.221 113.695 157.459 114.7 156.939 115.948C156.453 117.196 156.124 118.496 155.951 119.848C155.777 121.2 155.691 122.448 155.691 123.592C155.691 124.736 155.76 126.001 155.899 127.388C156.072 128.775 156.401 130.092 156.887 131.34C157.372 132.588 158.1 133.611 159.071 134.408C160.076 135.171 161.411 135.552 163.075 135.552Z" fill="#FDEEE3"/>
<path d="M93.7994 183V170.352H96.5354L100.639 176.688L104.671 170.352H107.359V183H105.343V172.608L100.879 179.76H100.303L95.8154 172.608V183H93.7994ZM114.637 183.144C114.061 183.144 113.501 183.072 112.957 182.928C112.429 182.768 111.949 182.536 111.517 182.232C111.101 181.912 110.765 181.52 110.509 181.056C110.269 180.576 110.149 180.024 110.149 179.4C110.149 178.68 110.277 178.072 110.533 177.576C110.805 177.08 111.165 176.688 111.613 176.4C112.061 176.112 112.581 175.904 113.173 175.776C113.765 175.648 114.381 175.584 115.021 175.584H118.741C118.741 174.864 118.637 174.24 118.429 173.712C118.237 173.184 117.917 172.776 117.469 172.488C117.021 172.184 116.429 172.032 115.693 172.032C115.245 172.032 114.829 172.08 114.445 172.176C114.061 172.272 113.733 172.424 113.461 172.632C113.189 172.84 112.989 173.12 112.861 173.472H110.677C110.789 172.896 111.005 172.408 111.325 172.008C111.661 171.592 112.061 171.256 112.525 171C113.005 170.728 113.517 170.528 114.061 170.4C114.605 170.272 115.149 170.208 115.693 170.208C116.909 170.208 117.885 170.456 118.621 170.952C119.357 171.432 119.893 172.12 120.229 173.016C120.565 173.896 120.733 174.944 120.733 176.16V183H119.029L118.909 181.392C118.557 181.872 118.133 182.24 117.637 182.496C117.141 182.752 116.629 182.92 116.101 183C115.589 183.096 115.101 183.144 114.637 183.144ZM114.829 181.344C115.629 181.344 116.317 181.216 116.893 180.96C117.485 180.688 117.941 180.296 118.261 179.784C118.581 179.272 118.741 178.648 118.741 177.912V177.288H116.509C115.981 177.288 115.461 177.296 114.949 177.312C114.437 177.328 113.973 177.392 113.557 177.504C113.141 177.616 112.805 177.808 112.549 178.08C112.309 178.352 112.189 178.744 112.189 179.256C112.189 179.736 112.309 180.128 112.549 180.432C112.805 180.736 113.133 180.968 113.533 181.128C113.949 181.272 114.381 181.344 114.829 181.344ZM123.893 183V170.352H132.629V172.152H125.933V183H123.893ZM138.496 183.144C137.92 183.144 137.36 183.072 136.816 182.928C136.288 182.768 135.808 182.536 135.376 182.232C134.96 181.912 134.624 181.52 134.368 181.056C134.128 180.576 134.008 180.024 134.008 179.4C134.008 178.68 134.136 178.072 134.392 177.576C134.664 177.08 135.024 176.688 135.472 176.4C135.92 176.112 136.44 175.904 137.032 175.776C137.624 175.648 138.24 175.584 138.88 175.584H142.6C142.6 174.864 142.496 174.24 142.288 173.712C142.096 173.184 141.776 172.776 141.328 172.488C140.88 172.184 140.288 172.032 139.552 172.032C139.104 172.032 138.688 172.08 138.304 172.176C137.92 172.272 137.592 172.424 137.32 172.632C137.048 172.84 136.848 173.12 136.72 173.472H134.536C134.648 172.896 134.864 172.408 135.184 172.008C135.52 171.592 135.92 171.256 136.384 171C136.864 170.728 137.376 170.528 137.92 170.4C138.464 170.272 139.008 170.208 139.552 170.208C140.768 170.208 141.744 170.456 142.48 170.952C143.216 171.432 143.752 172.12 144.088 173.016C144.424 173.896 144.592 174.944 144.592 176.16V183H142.888L142.768 181.392C142.416 181.872 141.992 182.24 141.496 182.496C141 182.752 140.488 182.92 139.96 183C139.448 183.096 138.96 183.144 138.496 183.144ZM138.688 181.344C139.488 181.344 140.176 181.216 140.752 180.96C141.344 180.688 141.8 180.296 142.12 179.784C142.44 179.272 142.6 178.648 142.6 177.912V177.288H140.368C139.84 177.288 139.32 177.296 138.808 177.312C138.296 177.328 137.832 177.392 137.416 177.504C137 177.616 136.664 177.808 136.408 178.08C136.168 178.352 136.048 178.744 136.048 179.256C136.048 179.736 136.168 180.128 136.408 180.432C136.664 180.736 136.992 180.968 137.392 181.128C137.808 181.272 138.24 181.344 138.688 181.344ZM152.337 183.144C151.729 183.144 151.121 183.088 150.513 182.976C149.905 182.864 149.337 182.68 148.809 182.424C148.297 182.152 147.881 181.792 147.561 181.344C147.241 180.88 147.065 180.304 147.033 179.616H149.025C149.105 180.048 149.337 180.392 149.721 180.648C150.105 180.904 150.537 181.088 151.017 181.2C151.513 181.296 151.953 181.344 152.337 181.344C152.785 181.344 153.241 181.296 153.705 181.2C154.185 181.104 154.585 180.912 154.905 180.624C155.241 180.336 155.409 179.912 155.409 179.352C155.409 178.808 155.273 178.408 155.001 178.152C154.745 177.896 154.401 177.728 153.969 177.648C153.553 177.568 153.097 177.528 152.601 177.528H150.345V175.728H152.193C152.497 175.728 152.809 175.704 153.129 175.656C153.449 175.592 153.745 175.496 154.017 175.368C154.289 175.224 154.505 175.024 154.665 174.768C154.841 174.512 154.929 174.184 154.929 173.784C154.929 173.336 154.801 172.984 154.545 172.728C154.289 172.472 153.961 172.296 153.561 172.2C153.161 172.088 152.753 172.032 152.337 172.032C151.953 172.032 151.545 172.072 151.113 172.152C150.697 172.232 150.337 172.392 150.033 172.632C149.729 172.856 149.545 173.192 149.481 173.64H147.465C147.497 172.776 147.761 172.096 148.257 171.6C148.753 171.104 149.369 170.752 150.105 170.544C150.841 170.32 151.577 170.208 152.313 170.208C152.873 170.208 153.425 170.264 153.969 170.376C154.513 170.488 155.009 170.68 155.457 170.952C155.905 171.208 156.257 171.552 156.513 171.984C156.785 172.416 156.921 172.952 156.921 173.592C156.921 174.168 156.785 174.68 156.513 175.128C156.241 175.576 155.825 175.936 155.265 176.208C156.081 176.464 156.649 176.864 156.969 177.408C157.289 177.952 157.449 178.6 157.449 179.352C157.449 180.024 157.305 180.6 157.017 181.08C156.729 181.544 156.337 181.936 155.841 182.256C155.361 182.56 154.817 182.784 154.209 182.928C153.601 183.072 152.977 183.144 152.337 183.144ZM160.081 183V170.352H162.121V180.048C162.233 179.824 162.385 179.584 162.577 179.328C162.769 179.056 162.921 178.848 163.033 178.704L169.153 170.352H171.169V183H169.129V173.304C169.001 173.544 168.857 173.768 168.697 173.976C168.553 174.184 168.417 174.376 168.289 174.552L162.073 183H160.081ZM174.378 183V170.352H176.418V175.896H182.754V170.352H184.794V183H182.754V177.696H176.418V183H174.378ZM193.538 183.144C192.21 183.144 191.098 182.872 190.202 182.328C189.306 181.768 188.634 181 188.186 180.024C187.754 179.048 187.538 177.936 187.538 176.688C187.538 175.424 187.754 174.312 188.186 173.352C188.634 172.376 189.306 171.608 190.202 171.048C191.098 170.488 192.226 170.208 193.586 170.208C194.914 170.208 196.018 170.488 196.898 171.048C197.794 171.608 198.458 172.376 198.89 173.352C199.338 174.312 199.562 175.424 199.562 176.688C199.562 177.936 199.338 179.048 198.89 180.024C198.442 181 197.77 181.768 196.874 182.328C195.994 182.872 194.882 183.144 193.538 183.144ZM193.538 181.344C194.466 181.344 195.218 181.136 195.794 180.72C196.386 180.304 196.818 179.744 197.09 179.04C197.378 178.336 197.522 177.552 197.522 176.688C197.522 175.824 197.378 175.04 197.09 174.336C196.818 173.632 196.386 173.072 195.794 172.656C195.218 172.24 194.466 172.032 193.538 172.032C192.626 172.032 191.874 172.24 191.282 172.656C190.706 173.072 190.274 173.632 189.986 174.336C189.714 175.04 189.578 175.824 189.578 176.688C189.578 177.552 189.714 178.336 189.986 179.04C190.274 179.744 190.706 180.304 191.282 180.72C191.874 181.136 192.626 181.344 193.538 181.344ZM202.292 183V170.352H207.188C207.748 170.352 208.3 170.392 208.844 170.472C209.404 170.536 209.908 170.68 210.356 170.904C210.82 171.112 211.188 171.424 211.46 171.84C211.748 172.256 211.892 172.808 211.892 173.496C211.892 173.912 211.828 174.296 211.7 174.648C211.572 174.984 211.38 175.28 211.124 175.536C210.884 175.792 210.572 176.016 210.188 176.208C211.052 176.4 211.676 176.776 212.06 177.336C212.444 177.896 212.636 178.536 212.636 179.256C212.636 179.896 212.516 180.456 212.276 180.936C212.052 181.4 211.732 181.784 211.316 182.088C210.916 182.392 210.444 182.624 209.9 182.784C209.372 182.928 208.804 183 208.196 183H202.292ZM204.38 181.224H207.716C208.212 181.224 208.676 181.176 209.108 181.08C209.54 180.984 209.892 180.808 210.164 180.552C210.436 180.28 210.572 179.896 210.572 179.4C210.572 178.888 210.452 178.504 210.212 178.248C209.988 177.976 209.692 177.792 209.324 177.696C208.972 177.584 208.588 177.52 208.172 177.504C207.756 177.488 207.364 177.48 206.996 177.48H204.38V181.224ZM204.38 175.752H206.132C206.452 175.752 206.82 175.736 207.236 175.704C207.668 175.672 208.084 175.6 208.484 175.488C208.9 175.36 209.236 175.168 209.492 174.912C209.764 174.656 209.9 174.304 209.9 173.856C209.9 173.264 209.732 172.856 209.396 172.632C209.076 172.392 208.692 172.256 208.244 172.224C207.796 172.176 207.38 172.152 206.996 172.152H204.38V175.752ZM118.573 212V199.352H123.469C124.029 199.352 124.581 199.392 125.125 199.472C125.685 199.536 126.189 199.68 126.637 199.904C127.101 200.112 127.469 200.424 127.741 200.84C128.029 201.256 128.173 201.808 128.173 202.496C128.173 202.912 128.109 203.296 127.981 203.648C127.853 203.984 127.661 204.28 127.405 204.536C127.165 204.792 126.853 205.016 126.469 205.208C127.333 205.4 127.957 205.776 128.341 206.336C128.725 206.896 128.917 207.536 128.917 208.256C128.917 208.896 128.797 209.456 128.557 209.936C128.333 210.4 128.013 210.784 127.597 211.088C127.197 211.392 126.725 211.624 126.181 211.784C125.653 211.928 125.085 212 124.477 212H118.573ZM120.661 210.224H123.997C124.493 210.224 124.957 210.176 125.389 210.08C125.821 209.984 126.173 209.808 126.445 209.552C126.717 209.28 126.853 208.896 126.853 208.4C126.853 207.888 126.733 207.504 126.493 207.248C126.269 206.976 125.973 206.792 125.605 206.696C125.253 206.584 124.869 206.52 124.453 206.504C124.037 206.488 123.645 206.48 123.277 206.48H120.661V210.224ZM120.661 204.752H122.413C122.733 204.752 123.101 204.736 123.517 204.704C123.949 204.672 124.365 204.6 124.765 204.488C125.181 204.36 125.517 204.168 125.773 203.912C126.045 203.656 126.181 203.304 126.181 202.856C126.181 202.264 126.013 201.856 125.677 201.632C125.357 201.392 124.973 201.256 124.525 201.224C124.077 201.176 123.661 201.152 123.277 201.152H120.661V204.752ZM143.567 212.144C142.239 212.144 141.135 211.872 140.255 211.328C139.391 210.768 138.743 210 138.311 209.024C137.895 208.048 137.687 206.944 137.687 205.712C137.687 204.512 137.903 203.424 138.335 202.448C138.783 201.456 139.455 200.672 140.351 200.096C141.263 199.504 142.415 199.208 143.807 199.208C144.671 199.208 145.439 199.352 146.111 199.64C146.799 199.928 147.367 200.352 147.815 200.912C148.263 201.456 148.575 202.144 148.751 202.976H146.663C146.423 202.272 146.039 201.776 145.511 201.488C144.999 201.184 144.391 201.032 143.687 201.032C142.727 201.032 141.959 201.256 141.383 201.704C140.807 202.152 140.383 202.736 140.111 203.456C139.855 204.16 139.727 204.912 139.727 205.712C139.727 206.544 139.863 207.312 140.135 208.016C140.407 208.72 140.831 209.288 141.407 209.72C141.983 210.136 142.727 210.344 143.639 210.344C144.311 210.344 144.943 210.2 145.535 209.912C146.143 209.624 146.543 209.112 146.735 208.376H148.847C148.687 209.24 148.343 209.952 147.815 210.512C147.303 211.072 146.671 211.488 145.919 211.76C145.183 212.016 144.399 212.144 143.567 212.144ZM156.904 212.144C155.56 212.144 154.448 211.872 153.568 211.328C152.688 210.768 152.032 210 151.6 209.024C151.168 208.048 150.952 206.936 150.952 205.688C150.952 204.424 151.176 203.312 151.624 202.352C152.088 201.376 152.76 200.608 153.64 200.048C154.52 199.488 155.6 199.208 156.88 199.208C157.824 199.208 158.648 199.392 159.352 199.76C160.072 200.112 160.664 200.592 161.128 201.2C161.608 201.808 161.952 202.488 162.16 203.24C162.384 203.992 162.48 204.768 162.448 205.568C162.432 205.712 162.424 205.856 162.424 206C162.424 206.144 162.416 206.288 162.4 206.432H153.016C153.08 207.168 153.264 207.832 153.568 208.424C153.872 209.016 154.304 209.488 154.864 209.84C155.424 210.176 156.12 210.344 156.952 210.344C157.368 210.344 157.784 210.296 158.2 210.2C158.632 210.088 159.016 209.904 159.352 209.648C159.704 209.392 159.952 209.048 160.096 208.616H162.184C161.992 209.432 161.632 210.104 161.104 210.632C160.576 211.144 159.944 211.528 159.208 211.784C158.472 212.024 157.704 212.144 156.904 212.144ZM153.064 204.656H160.384C160.368 203.936 160.208 203.304 159.904 202.76C159.6 202.216 159.184 201.792 158.656 201.488C158.144 201.184 157.528 201.032 156.808 201.032C156.024 201.032 155.36 201.2 154.816 201.536C154.288 201.872 153.88 202.312 153.592 202.856C153.304 203.4 153.128 204 153.064 204.656ZM168.142 212V201.152H163.798V199.352H174.526V201.152H170.182V212H168.142ZM176.346 212V199.352H178.386V209.048C178.498 208.824 178.65 208.584 178.842 208.328C179.034 208.056 179.186 207.848 179.298 207.704L185.418 199.352H187.434V212H185.394V202.304C185.266 202.544 185.122 202.768 184.962 202.976C184.818 203.184 184.682 203.376 184.554 203.552L178.338 212H176.346Z" fill="#FDEEE3"/>
</svg>
