<svg width="292" height="78" viewBox="0 0 292 78" fill="none" xmlns="http://www.w3.org/2000/svg">
<path d="M267.488 69.7075V71.6599H283.274C283.95 71.6599 284.336 71.2939 284.336 70.6837C284.336 70.0736 283.95 69.7075 283.274 69.7075H267.488ZM283.274 63.3622H267.488V65.3146H283.274C283.95 65.3146 284.336 64.9485 284.336 64.3384C284.336 63.7282 283.95 63.3622 283.274 63.3622ZM285.929 76.0529H259.86V58.9692H285.929C289.478 58.9692 291.964 60.6776 291.964 63.8503C291.964 65.5098 291.191 66.7545 289.864 67.5111C291.191 68.2676 291.964 69.5123 291.964 71.1718C291.964 74.3445 289.478 76.0529 285.929 76.0529Z" fill="#FDEEE3"/>
<path d="M226.553 76.0529V58.9692H257.932V63.3622H234.18V65.3146H257.932V69.7075H234.18V71.6599H257.932V76.0529H226.553Z" fill="#FDEEE3"/>
<path d="M190.817 76.0529V58.9692H198.445V70.1956H215.293V58.9692H222.921V70.1956H224.852V78.0053H217.224V76.0529H190.817Z" fill="#FDEEE3"/>
<path d="M149.354 76.0529V58.9692H159.54L168.929 70.6837L178.319 58.9692H188.891V76.0529H181.264V66.0223L173.226 76.0529H164.633L156.981 66.5104V76.0529H149.354Z" fill="#FDEEE3"/>
<path d="M147.419 58.9692V76.0529H139.791V66.2908L122.943 76.0529H115.315V58.9692H122.943V68.7313L139.791 58.9692H147.419Z" fill="#FDEEE3"/>
<path d="M89.1403 71.6599H104.927C105.602 71.6599 105.989 71.2939 105.989 70.6837C105.989 70.0736 105.602 69.7075 104.927 69.7075H89.1403V71.6599ZM107.582 76.0529H81.5127V58.9692H112.892V63.3622H89.1403V65.3146H107.582C111.13 65.3146 113.616 67.511 113.616 70.6837C113.616 73.8564 111.13 76.0529 107.582 76.0529Z" fill="#FDEEE3"/>
<path d="M70.0306 65.0705H55.5479C54.2203 65.0705 53.1341 66.1688 53.1341 67.5111C53.1341 68.8533 54.2203 69.9516 55.5479 69.9516H70.0306C71.3582 69.9516 72.4444 68.8533 72.4444 67.5111C72.4444 66.1688 71.3582 65.0705 70.0306 65.0705ZM53.9789 58.7252H71.5996C76.2582 58.7252 80.0479 62.8008 80.0479 67.5111C80.0479 72.2213 76.2582 76.2969 71.5996 76.2969H53.9789C50.0685 76.2969 46.7616 73.4171 45.8203 69.7075H44.5651V76.0529H36.9375V58.9692H44.5651V65.3146H45.8203C46.7616 61.605 50.0685 58.7252 53.9789 58.7252Z" fill="#FDEEE3"/>
<path d="M17.9828 64.3384L8.59311 76.0529H0L13.6862 58.9692H22.2793L35.9655 76.0529H27.3724L17.9828 64.3384Z" fill="#FDEEE3"/>
<path d="M257.676 29.6066H268.441L274.669 34.1216L280.897 29.6066H291.662L280.052 38.0264L292 46.6903H281.234L274.669 41.9313L268.103 46.6903H257.338L269.286 38.0264L257.676 29.6066Z" fill="#FDEEE3"/>
<path d="M256.134 29.6066V46.6903H248.506V36.9282L231.658 46.6903H224.03V29.6066H231.658V39.3687L248.506 29.6066H256.134Z" fill="#FDEEE3"/>
<path d="M196.508 29.3626H214.129C218.787 29.3626 222.577 33.4383 222.577 38.1485C222.577 42.8587 218.787 46.9344 214.129 46.9344H196.508C191.849 46.9344 188.06 42.8587 188.06 38.1485C188.06 33.4383 191.849 29.3626 196.508 29.3626ZM212.56 35.7079H198.077C196.749 35.7079 195.663 36.8062 195.663 38.1485C195.663 39.4908 196.749 40.589 198.077 40.589H212.56C213.887 40.589 214.973 39.4908 214.973 38.1485C214.973 36.8062 213.887 35.7079 212.56 35.7079Z" fill="#FDEEE3"/>
<path d="M162.615 40.3449V42.2974H178.401C179.077 42.2974 179.463 41.9313 179.463 41.3212C179.463 40.711 179.077 40.3449 178.401 40.3449H162.615ZM178.401 33.9996H162.615V35.952H178.401C179.077 35.952 179.463 35.5859 179.463 34.9758C179.463 34.3657 179.077 33.9996 178.401 33.9996ZM181.056 46.6903H154.987V29.6066H181.056C184.605 29.6066 187.091 31.315 187.091 34.4877C187.091 36.1472 186.318 37.3919 184.991 38.1485C186.318 38.905 187.091 40.1497 187.091 41.8093C187.091 44.9819 184.605 46.6903 181.056 46.6903Z" fill="#FDEEE3"/>
<path d="M133.163 46.6903V35.4639H120.949V29.6066H153.053V35.4639H140.791V46.6903H133.163Z" fill="#FDEEE3"/>
<path d="M83.5315 37.4163H99.3177V35.4639H83.5315C82.8556 35.4639 82.4694 35.83 82.4694 36.4401C82.4694 37.0502 82.8556 37.4163 83.5315 37.4163ZM81.6004 29.6066H106.945V46.6903H99.3177V43.2736H89.4211L84.5211 46.6903H74.8418L79.9832 43.1027C76.7487 42.3462 74.8418 39.3931 74.8418 36.4401C74.8418 33.0234 77.3763 29.6066 81.6004 29.6066Z" fill="#FDEEE3"/>
<path d="M56.1224 34.9758L46.7328 46.6903H38.1396L51.8259 29.6066H60.419L74.1052 46.6903H65.5121L56.1224 34.9758Z" fill="#FDEEE3"/>
<path d="M12.4793 37.6848L11.031 40.833H27.6138V35.4639H15.9069C14.2897 35.4639 13.1552 36.1961 12.4793 37.6848ZM37.1724 48.6427H29.5449V46.6903H7.62759V48.6427H0V40.833H2.70345L5.14138 35.3907C6.90345 31.5102 9.82415 29.6066 14.0241 29.6066H35.2414V40.833H37.1724V48.6427Z" fill="#FDEEE3"/>
<path d="M194.572 9.51806H178.786V11.4705H194.572C195.248 11.4705 195.634 11.1044 195.634 10.4943C195.634 9.88414 195.248 9.51806 194.572 9.51806ZM196.503 17.3277H171.158V0.244064H178.786V3.6608H196.503C200.727 3.6608 203.262 7.07754 203.262 10.4943C203.262 13.911 200.727 17.3277 196.503 17.3277ZM211.855 17.3277H204.227V0.244064H211.855V17.3277Z" fill="#FDEEE3"/>
<path d="M161.264 6.10133H145.478V8.05375H161.264C161.94 8.05375 162.326 7.68767 162.326 7.07754C162.326 6.46741 161.94 6.10133 161.264 6.10133ZM145.478 17.3277H137.851V0.244064H163.195C167.42 0.244064 169.954 3.6608 169.954 7.07754C169.954 10.4943 167.42 13.911 163.195 13.911H145.478V17.3277Z" fill="#FDEEE3"/>
<path d="M118.895 5.61321L115.371 10.0062H122.419L118.895 5.61321ZM114.598 0.244049H123.191L136.878 17.3277H128.285L126.329 14.8872H111.46L109.505 17.3277H100.912L114.598 0.244049Z" fill="#FDEEE3"/>
<path d="M76.6706 10.9824V12.9348H92.4568C93.1326 12.9348 93.5189 12.5687 93.5189 11.9586C93.5189 11.3484 93.1326 10.9824 92.4568 10.9824H76.6706ZM92.4568 4.637H76.6706V6.58942H92.4568C93.1326 6.58942 93.5189 6.22334 93.5189 5.61321C93.5189 5.00308 93.1326 4.637 92.4568 4.637ZM95.112 17.3277H69.043V0.244049H95.112C98.6602 0.244049 101.146 1.95242 101.146 5.1251C101.146 6.78466 100.374 8.02933 99.0464 8.78589C100.374 9.54245 101.146 10.7871 101.146 12.4467C101.146 15.6194 98.6602 17.3277 95.112 17.3277Z" fill="#FDEEE3"/>
<path d="M41.5205 0H59.1413C63.7999 0 67.5895 4.07568 67.5895 8.78589C67.5895 13.4961 63.7999 17.5718 59.1413 17.5718H41.5205C36.8619 17.5718 33.0723 13.4961 33.0723 8.78589C33.0723 4.07568 36.8619 0 41.5205 0ZM57.5723 6.34537H43.0895C41.7619 6.34537 40.6757 7.4436 40.6757 8.78589C40.6757 10.1282 41.7619 11.2264 43.0895 11.2264H57.5723C58.8999 11.2264 59.9861 10.1282 59.9861 8.78589C59.9861 7.4436 58.8999 6.34537 57.5723 6.34537Z" fill="#FDEEE3"/>
<path d="M12.2138 17.3277V6.10133H0V0.244064H32.1035V6.10133H19.8414V17.3277H12.2138Z" fill="#FDEEE3"/>
</svg>
