<svg width="588" height="157" viewBox="0 0 588 157" fill="none" xmlns="http://www.w3.org/2000/svg">
<path d="M538.64 139.415V143.32H570.429C571.79 143.32 572.567 142.588 572.567 141.367C572.567 140.147 571.79 139.415 570.429 139.415H538.64ZM570.429 126.724H538.64V130.629H570.429C571.79 130.629 572.567 129.897 572.567 128.677C572.567 127.456 571.79 126.724 570.429 126.724ZM575.775 152.106H523.28V117.938H575.775C582.921 117.938 587.927 121.355 587.927 127.701C587.927 131.02 586.372 133.509 583.698 135.022C586.372 136.535 587.927 139.025 587.927 142.344C587.927 148.689 582.921 152.106 575.775 152.106Z" fill="#FDEEE3"/>
<path d="M456.209 152.106V117.938H519.398V126.724H471.569V130.629H519.398V139.415H471.569V143.32H519.398V152.106H456.209Z" fill="#FDEEE3"/>
<path d="M384.248 152.106V117.938H399.608V140.391H433.535V117.938H448.895V140.391H452.783V156.011H437.424V152.106H384.248Z" fill="#FDEEE3"/>
<path d="M300.753 152.106V117.938H321.265L340.173 141.367L359.081 117.938H380.37V152.106H365.011V132.045L348.825 152.106H331.521L316.113 133.021V152.106H300.753Z" fill="#FDEEE3"/>
<path d="M296.858 117.938V152.106H281.498V132.582L247.571 152.106H232.211V117.938H247.571V137.463L281.498 117.938H296.858Z" fill="#FDEEE3"/>
<path d="M179.501 143.32H211.29C212.651 143.32 213.429 142.588 213.429 141.367C213.429 140.147 212.651 139.415 211.29 139.415H179.501V143.32ZM216.637 152.106H164.142V117.938H227.33V126.724H179.501V130.629H216.637C223.782 130.629 228.788 135.022 228.788 141.367C228.788 147.713 223.782 152.106 216.637 152.106Z" fill="#FDEEE3"/>
<path d="M141.02 130.141H111.857C109.183 130.141 106.996 132.338 106.996 135.022C106.996 137.707 109.183 139.903 111.857 139.903H141.02C143.694 139.903 145.881 137.707 145.881 135.022C145.881 132.338 143.694 130.141 141.02 130.141ZM108.697 117.45H144.18C153.561 117.45 161.192 125.602 161.192 135.022C161.192 144.443 153.561 152.594 144.18 152.594H108.697C100.823 152.594 94.1637 146.834 92.2681 139.415H89.7405V152.106H74.3809V117.938H89.7405V130.629H92.2681C94.1637 123.21 100.823 117.45 108.697 117.45Z" fill="#FDEEE3"/>
<path d="M36.2119 128.677L17.3039 152.106H0L27.5599 117.938H44.8639L72.4238 152.106H55.1198L36.2119 128.677Z" fill="#FDEEE3"/>
<path d="M518.882 59.2133H540.56L553.101 68.2432L565.641 59.2133H587.32L563.94 76.0529L588 93.3806H566.322L553.101 83.8626L539.88 93.3806H518.201L542.261 76.0529L518.882 59.2133Z" fill="#FDEEE3"/>
<path d="M515.777 59.2133V93.3806H500.417V73.8564L466.49 93.3806H451.13V59.2133H466.49V78.7375L500.417 59.2133H515.777Z" fill="#FDEEE3"/>
<path d="M395.707 58.7252H431.189C440.57 58.7252 448.202 66.8765 448.202 76.2969C448.202 85.7174 440.57 93.8687 431.189 93.8687H395.707C386.326 93.8687 378.694 85.7174 378.694 76.2969C378.694 66.8765 386.326 58.7252 395.707 58.7252ZM428.03 71.4159H398.866C396.193 71.4159 394.005 73.6124 394.005 76.2969C394.005 78.9815 396.193 81.178 398.866 81.178H428.03C430.703 81.178 432.891 78.9815 432.891 76.2969C432.891 73.6124 430.703 71.4159 428.03 71.4159Z" fill="#FDEEE3"/>
<path d="M327.457 80.6899V84.5947H359.246C360.607 84.5947 361.385 83.8626 361.385 82.6423C361.385 81.4221 360.607 80.6899 359.246 80.6899H327.457ZM359.246 67.9992H327.457V71.904H359.246C360.607 71.904 361.385 71.1718 361.385 69.9516C361.385 68.7313 360.607 67.9992 359.246 67.9992ZM364.593 93.3806H312.098V59.2133H364.593C371.738 59.2133 376.744 62.63 376.744 68.9754C376.744 72.2945 375.189 74.7838 372.516 76.297C375.189 77.8101 376.744 80.2994 376.744 83.6185C376.744 89.9639 371.738 93.3806 364.593 93.3806Z" fill="#FDEEE3"/>
<path d="M268.151 93.3806V70.9278H243.556V59.2133H308.202V70.9278H283.51V93.3806H268.151Z" fill="#FDEEE3"/>
<path d="M168.207 74.8326H199.996V70.9278H168.207C166.846 70.9278 166.069 71.6599 166.069 72.8802C166.069 74.1005 166.846 74.8326 168.207 74.8326ZM164.319 59.2133H215.356V93.3806H199.996V86.5471H180.067L170.2 93.3806H150.709L161.062 86.2055C154.549 84.6923 150.709 78.7863 150.709 72.8802C150.709 66.0467 155.813 59.2133 164.319 59.2133Z" fill="#FDEEE3"/>
<path d="M113.014 69.9516L94.1057 93.3806H76.8018L104.362 59.2133H121.666L149.226 93.3806H131.922L113.014 69.9516Z" fill="#FDEEE3"/>
<path d="M25.1296 75.3696L22.2132 81.6661H55.6059V70.9278H32.0317C28.7751 70.9278 26.4906 72.3921 25.1296 75.3696ZM74.8541 97.2855H59.4944V93.3806H15.3597V97.2855H0V81.6661H5.44393L10.3532 70.7814C13.9015 63.0205 19.7829 59.2133 28.2404 59.2133H70.9656V81.6661H74.8541V97.2855Z" fill="#FDEEE3"/>
<path d="M391.809 19.0361H360.02V22.941H391.809C393.17 22.941 393.947 22.2088 393.947 20.9885C393.947 19.7683 393.17 19.0361 391.809 19.0361ZM395.697 34.6555H344.66V0.488113H360.02V7.32159H395.697C404.203 7.32159 409.307 14.1551 409.307 20.9885C409.307 27.822 404.203 34.6555 395.697 34.6555ZM426.611 34.6555H411.251V0.488113H426.611V34.6555Z" fill="#FDEEE3"/>
<path d="M324.737 12.2026H292.949V16.1075H324.737C326.098 16.1075 326.876 15.3753 326.876 14.1551C326.876 12.9348 326.098 12.2026 324.737 12.2026ZM292.949 34.6555H277.589V0.488113H328.626C337.132 0.488113 342.236 7.32159 342.236 14.1551C342.236 20.9885 337.132 27.822 328.626 27.822H292.949V34.6555Z" fill="#FDEEE3"/>
<path d="M239.419 11.2264L232.322 20.0123H246.515L239.419 11.2264ZM230.767 0.488113H248.071L275.631 34.6555H258.327L254.39 29.7744H224.448L220.511 34.6555H203.207L230.767 0.488113Z" fill="#FDEEE3"/>
<path d="M154.392 21.9647V25.8696H186.181C187.542 25.8696 188.319 25.1374 188.319 23.9172C188.319 22.6969 187.542 21.9647 186.181 21.9647H154.392ZM186.181 9.27401H154.392V13.1788H186.181C187.542 13.1788 188.319 12.4467 188.319 11.2264C188.319 10.0062 187.542 9.27401 186.181 9.27401ZM191.527 34.6555H139.032V0.488113H191.527C198.672 0.488113 203.679 3.90485 203.679 10.2502C203.679 13.5693 202.124 16.0587 199.45 17.5718C202.124 19.0849 203.679 21.5743 203.679 24.8934C203.679 31.2387 198.672 34.6555 191.527 34.6555Z" fill="#FDEEE3"/>
<path d="M83.609 0H119.092C128.473 0 136.104 8.15136 136.104 17.5718C136.104 26.9922 128.473 35.1436 119.092 35.1436H83.609C74.2279 35.1436 66.5967 26.9922 66.5967 17.5718C66.5967 8.15136 74.2279 0 83.609 0ZM115.932 12.6907H86.7684C84.095 12.6907 81.9077 14.8872 81.9077 17.5718C81.9077 20.2564 84.095 22.4528 86.7684 22.4528H115.932C118.606 22.4528 120.793 20.2564 120.793 17.5718C120.793 14.8872 118.606 12.6907 115.932 12.6907Z" fill="#FDEEE3"/>
<path d="M24.5949 34.6555V12.2026H0V0.488113H64.6467V12.2026H39.9546V34.6555H24.5949Z" fill="#FDEEE3"/>
</svg>
